<?xml version="1.0" encoding="UTF-8"?>
<svg version="1.1" xmlns="http://www.w3.org/2000/svg" width="512" height="512">
<path d="M0 0 C7.98516202 2.33187474 14.53680279 2.50469619 22.46118164 -0.27172852 C33.93348366 -3.73693301 45.04114658 -3.73350221 55.83618164 1.72827148 C68.76219611 8.82352942 75.52520017 17.15533299 82.10571289 30.25561523 C86.72915173 39.30147383 93.83800296 43.83975432 102.29321289 49.12280273 C112.69228142 55.68811328 117.10383973 64.58105841 120.14477539 76.33764648 C122.61627677 88.45777754 119.31374884 98.26867919 112.96899414 108.66186523 C109.12735525 114.18510064 104.54436561 118.95323101 99.83618164 123.72827148 C99.29590332 124.28224609 98.755625 124.8362207 98.19897461 125.40698242 C91.97023232 131.78605492 85.65860703 137.9790366 78.83618164 143.72827148 C78.50618164 144.05827148 78.17618164 144.38827148 77.83618164 144.72827148 C83.38236099 144.07838629 88.54417175 142.79130606 93.89868164 141.22827148 C107.28375061 137.34049212 125.85602555 133.91938259 138.83618164 140.72827148 C153.83815477 149.86812906 161.46761036 161.89027634 165.68383789 178.81811523 C167.11186812 182.42449666 168.96281196 184.14142014 171.83618164 186.72827148 C184.73428372 198.98591608 195.92744472 211.99481558 197.07446289 230.59155273 C197.56493439 250.17064461 192.61642328 266.52620323 179.83618164 281.72827148 C178.94866211 282.92129883 178.94866211 282.92129883 178.04321289 284.13842773 C175.36147606 287.28531537 172.40752092 289.70453511 169.14868164 292.22827148 C168.52944824 292.7189209 167.91021484 293.20957031 167.2722168 293.71508789 C163.87356891 296.35533788 160.68657714 298.39669571 156.71118164 300.10327148 C153.63522917 301.64696511 152.92210914 302.54345535 151.43774414 305.73608398 C149.88108205 310.67103403 148.82088336 315.65327029 147.83618164 320.72827148 C148.68180664 321.38827148 149.52743164 322.04827148 150.39868164 322.72827148 C163.33563188 333.52134108 177.99735231 351.73516802 181.64868164 368.44702148 C181.83618164 371.72827148 181.83618164 371.72827148 179.58618164 374.60327148 C175.29381145 377.920103 172.12786109 377.82811449 166.83618164 377.72827148 C167.4768457 378.63706055 168.11750977 379.54584961 168.77758789 380.48217773 C181.59256969 398.96040241 192.37730015 422.61149383 190.83618164 445.72827148 C188.58206177 447.98239135 182.98758404 447.03880742 179.87768555 447.04736328 C158.1837212 446.72385313 131.85405364 441.98648857 114.83618164 427.72827148 C114.65442383 428.5597168 114.47266602 429.39116211 114.28540039 430.24780273 C114.0340332 431.33448242 113.78266602 432.42116211 113.52368164 433.54077148 C113.28004883 434.6197168 113.03641602 435.69866211 112.78540039 436.81030273 C111.84023796 439.71580205 111.25099472 440.93355856 108.83618164 442.72827148 C94.87894431 447.38068393 72.90907173 435.69830405 60.35522461 429.50415039 C57.28390346 427.9157063 54.23653059 426.29199026 51.21533203 424.61010742 C46.73338094 422.10207963 46.73338094 422.10207963 41.83618164 420.72827148 C39.55188179 421.78406319 39.55188179 421.78406319 37.27368164 423.41577148 C31.29001788 427.20046071 25.02762179 430.11808904 17.96508789 431.14624023 C9.51424684 432.45931912 5.77855226 436.33498886 0.20825195 442.38085938 C-6.95110298 449.97852197 -16.05608163 455.20920016 -26.68066406 455.8894043 C-48.86114402 456.23969743 -70.66745605 455.23317793 -88.16381836 439.72827148 C-89.29381703 438.28986155 -90.39996439 436.83225163 -91.47631836 435.35327148 C-94.60453513 431.46970481 -97.48693094 430.91298151 -102.35131836 430.16577148 C-107.87314378 429.48507912 -107.87314378 429.48507912 -113.16381836 430.72827148 C-115.38020029 432.69371957 -115.38020029 432.69371957 -117.60131836 435.16577148 C-131.77914618 449.6752444 -149.30204928 460.76638885 -170.16381836 461.10327148 C-176.54705919 461.14251272 -176.54705919 461.14251272 -178.99584961 459.49780273 C-180.37967043 457.40124478 -181.12020222 455.44301022 -181.85131836 453.04077148 C-182.10268555 452.2325293 -182.35405273 451.42428711 -182.61303711 450.59155273 C-182.79479492 449.97666992 -182.97655273 449.36178711 -183.16381836 448.72827148 C-183.94756836 449.45014648 -184.73131836 450.17202148 -185.53881836 450.91577148 C-199.76548956 462.54681445 -219.82798411 463.91845478 -237.46264648 463.96850586 C-239.5275086 463.97821829 -241.5913758 464.00932543 -243.65600586 464.04077148 C-252.5894186 464.11241767 -260.78577112 463.79290455 -268.28881836 458.54077148 C-270.22798037 455.63202847 -271.13524536 453.54164084 -270.89819336 450.00561523 C-269.5740495 445.8993606 -266.62007422 443.04129896 -263.80444336 439.84936523 C-260.89745078 436.51366684 -258.46273375 432.92385611 -256.03881836 429.22827148 C-255.62277344 428.59518066 -255.20672852 427.96208984 -254.77807617 427.30981445 C-253.56619661 425.4537956 -252.36290782 423.59257487 -251.16381836 421.72827148 C-250.60887695 420.86613037 -250.60887695 420.86613037 -250.04272461 419.98657227 C-248.06728782 416.91035407 -246.10778782 413.82446125 -244.16381836 410.72827148 C-245.32010742 410.5987207 -245.32010742 410.5987207 -246.49975586 410.46655273 C-248.0040918 410.25579102 -248.0040918 410.25579102 -249.53881836 410.04077148 C-250.53655273 409.9131543 -251.53428711 409.78553711 -252.56225586 409.65405273 C-255.16381836 408.72827148 -255.16381836 408.72827148 -256.70288086 406.70874023 C-258.051882 397.98596169 -251.6506895 390.40955574 -246.91381836 383.66577148 C-246.27057617 382.72411133 -245.62733398 381.78245117 -244.96459961 380.81225586 C-239.23654167 372.53135118 -233.64520535 365.26713646 -225.16381836 359.72827148 C-225.82381836 359.21264648 -226.48381836 358.69702148 -227.16381836 358.16577148 C-228.15381836 357.36139648 -229.14381836 356.55702148 -230.16381836 355.72827148 C-230.7915918 355.24229492 -231.41936523 354.75631836 -232.06616211 354.25561523 C-238.07695265 349.37545324 -242.570131 343.58277539 -245.01147461 336.14624023 C-246.31693084 332.46722721 -247.49918944 329.70896575 -250.97973633 327.65844727 C-254.03401309 326.20868945 -257.14837659 324.94677908 -260.28686523 323.69213867 C-271.05176674 319.32408969 -278.24737967 312.2781295 -283.16381836 301.72827148 C-289.35785363 286.49565757 -292.39173896 269.50951472 -286.16381836 253.72827148 C-284.30661235 250.03773783 -282.33315067 246.41129248 -280.21289062 242.86523438 C-277.32195197 237.84582205 -276.64529832 234.5234954 -277.16381836 228.72827148 C-277.49381836 227.53202148 -277.82381836 226.33577148 -278.16381836 225.10327148 C-281.2125134 213.85844702 -279.20685873 203.38424155 -273.87866211 193.29467773 C-268.34530812 184.15462504 -260.26704452 178.83952987 -250.16381836 175.72827148 C-232.93934935 171.72861652 -213.41740184 174.60437743 -196.3984375 178.36108398 C-193.95314515 178.76288882 -191.63759643 178.78930533 -189.16381836 178.72827148 C-194.20281978 175.43149684 -199.3502172 172.54490166 -204.72583008 169.83496094 C-219.45261802 162.40201266 -234.93946078 153.98239957 -241.16381836 137.72827148 C-244.45628887 127.70822584 -244.60623434 117.04360616 -240.50756836 107.23608398 C-237.90281227 102.37488221 -234.5933827 97.86584737 -230.44116211 94.21264648 C-228.74505063 92.58046965 -228.74505063 92.58046965 -229.28881836 88.97827148 C-229.70062146 86.10027681 -230.2606623 83.30540317 -230.90991211 80.47045898 C-234.62132167 64.02660611 -235.58564848 46.93638265 -226.53881836 31.97827148 C-218.87831268 21.54083249 -207.5698281 13.21139884 -194.61303711 10.97827148 C-173.38471601 8.81142531 -154.85982181 15.82395705 -137.98413086 28.38061523 C-136.20192283 29.78120809 -136.20192283 29.78120809 -134.16381836 30.72827148 C-133.97819336 30.15077148 -133.79256836 29.57327148 -133.60131836 28.97827148 C-131.43543254 25.58818933 -128.90253116 23.96818301 -125.16381836 22.72827148 C-116.38735109 21.57195169 -109.11539523 23.05210769 -101.16381836 26.72827148 C-100.21249023 27.12916992 -99.26116211 27.53006836 -98.28100586 27.94311523 C-85.16198822 34.10941099 -80.92358908 47.66728728 -76.26245117 60.52172852 C-72.51329885 71.46425444 -69.35362173 82.61296505 -66.16381836 93.72827148 C-65.83381836 93.72827148 -65.50381836 93.72827148 -65.16381836 93.72827148 C-64.91241688 85.418056 -65.30792738 77.36239851 -66.16381836 69.10327148 C-68.14561106 49.56030523 -68.45557547 28.38192103 -56.07397461 11.97827148 C-48.93558051 3.56985635 -39.91285084 -2.28951868 -28.89428711 -4.04907227 C-18.77013616 -4.87464681 -9.61934673 -2.90148502 0 0 Z " fill="#E94A8C" transform="translate(303.163818359375,24.271728515625)"/>
<path d="M0 0 C3.81492458 1.16783406 4.93270111 2.6244795 7.0625 5.9375 C9.63898297 13.66694891 8.05013833 22.96584778 7.0625 30.9375 C7.65675781 30.12667969 8.25101563 29.31585938 8.86328125 28.48046875 C26.80983254 4.35505582 26.80983254 4.35505582 40.0625 -0.0625 C45.12150959 -0.54020834 49.56999022 -0.73559265 54.25 1.375 C56.99688319 5.2585245 56.80666719 8.33075075 56.0625 12.9375 C52.76044786 26.26876639 44.3106016 38.18864419 36.0625 48.9375 C36.69414062 48.51339844 37.32578125 48.08929688 37.9765625 47.65234375 C61.57612644 32.18000716 61.57612644 32.18000716 74.0625 33.9375 C77.56194644 36.60374491 77.96572513 38.30308699 78.625 42.625 C78.0800632 51.70160354 72.15529652 58.41706132 66.1484375 64.7109375 C64.28362708 66.70146548 62.64983457 68.72331993 61.0625 70.9375 C61.99191406 70.66035156 62.92132813 70.38320312 63.87890625 70.09765625 C65.73322266 69.55431641 65.73322266 69.55431641 67.625 69 C68.84316406 68.64035156 70.06132812 68.28070313 71.31640625 67.91015625 C77.55498561 66.29033742 83.63361416 65.73676349 90.0625 65.6875 C90.73539063 65.666875 91.40828125 65.64625 92.1015625 65.625 C98.29921396 65.57714169 102.95013239 66.93345893 107.5 71.25 C109.39966954 74.51743162 109.60581997 76.21187734 109.0625 79.9375 C106.95764044 85.55045881 102.17111554 88.28692435 97.0625 90.9375 C86.74517692 95.43123491 76.1228992 98.85250554 65.0625 100.9375 C65.89104492 101.04239746 65.89104492 101.04239746 66.73632812 101.14941406 C102.72791013 105.78627488 102.72791013 105.78627488 112.5625 115.375 C114.45508708 118.60816959 114.75377049 120.25072407 114.0625 123.9375 C110.31033972 128.39952844 106.86446227 131.11872277 101.0625 131.9375 C96.12811032 132.16437287 91.18904197 132.13017712 86.25 132.125 C85.20644852 132.12608765 85.20644852 132.12608765 84.14181519 132.12719727 C73.99446756 132.1260236 64.07159383 131.75438575 54.0625 129.9375 C54.48023682 130.33952637 54.89797363 130.74155273 55.32836914 131.15576172 C70.92699108 146.244259 70.92699108 146.244259 76.0625 154.9375 C76.49046875 155.62070312 76.9184375 156.30390625 77.359375 157.0078125 C80.09505707 161.78588735 81.30223095 166.46809874 80.0625 171.9375 C77.51553358 175.15472074 75.27488232 177.62900047 71.1015625 178.2109375 C51.84392939 179.02112918 33.83635486 162.64799159 20.0625 150.9375 C19.83699463 152.41005249 19.83699463 152.41005249 19.60693359 153.91235352 C19.03213819 157.63358641 18.43358819 161.35070356 17.82861328 165.06713867 C17.57234834 166.66119621 17.32212157 168.25623889 17.07861328 169.85229492 C15.02128327 183.29267102 12.48762906 196.58616382 3.0625 206.9375 C-0.20239556 209.25452265 -2.99355953 209.47882516 -6.9375 208.9375 C-21.48703947 201.26592464 -26.11073847 180.99979972 -30.90234375 166.34765625 C-32.15078328 162.23487244 -33.12338785 158.15608113 -33.9375 153.9375 C-36.13491753 156.74991804 -38.05902439 159.67947343 -39.94335938 162.70898438 C-55.01106798 186.82257738 -55.01106798 186.82257738 -66.328125 189.50390625 C-69.6340555 189.76115581 -71.91291518 189.74253093 -74.578125 187.6484375 C-78.67890797 182.8641907 -79.33308952 179.3754888 -79.29296875 173.28515625 C-78.35307533 164.43363249 -74.47494442 156.0290151 -70.9375 147.9375 C-71.51604736 148.33541748 -72.09459473 148.73333496 -72.69067383 149.14331055 C-75.37113659 150.97944487 -78.06044109 152.80221837 -80.75 154.625 C-81.65943359 155.25083984 -82.56886719 155.87667969 -83.50585938 156.52148438 C-89.73365874 160.72469879 -96.00699535 164.04527673 -102.9375 166.9375 C-103.948125 167.370625 -104.95875 167.80375 -106 168.25 C-110.36906336 169.27254674 -114.48698371 169.64099259 -118.9375 168.9375 C-122.0625 166.9375 -122.0625 166.9375 -123.9375 163.9375 C-125.09735955 156.9783427 -122.83051909 152.62584343 -118.9375 146.9375 C-112.54025835 138.12043216 -105.18921614 130.42020082 -96.6484375 123.6640625 C-95.7620459 122.96104004 -94.8756543 122.25801758 -93.96240234 121.53369141 C-93.29418457 121.00694824 -92.6259668 120.48020508 -91.9375 119.9375 C-92.73857178 119.92291748 -93.53964355 119.90833496 -94.36499023 119.89331055 C-98.03545046 119.81830584 -101.70505295 119.72181792 -105.375 119.625 C-107.26508789 119.59116211 -107.26508789 119.59116211 -109.19335938 119.55664062 C-118.19496866 119.29810877 -126.57010732 118.85457185 -133.4375 112.4375 C-134.0871875 111.8496875 -134.736875 111.261875 -135.40625 110.65625 C-138.64361787 107.02246974 -138.45962328 102.4269449 -138.3984375 97.7890625 C-137.43522648 91.83021466 -133.31206538 88.69901064 -128.66796875 85.25390625 C-118.36990415 78.58262369 -105.26226086 74.41304209 -92.9375 74.9375 C-92.9375 74.2775 -92.9375 73.6175 -92.9375 72.9375 C-93.5975 72.89625 -94.2575 72.855 -94.9375 72.8125 C-100.29586197 71.24964443 -104.47804338 67.76182078 -107.9375 63.4375 C-109.185841 60.3166475 -109.43364857 58.26878328 -108.9375 54.9375 C-107.40234375 52.78125 -107.40234375 52.78125 -104.9375 50.9375 C-102.15098889 50.55533271 -99.83649705 50.41494602 -97.0625 50.5 C-95.93509399 50.51873169 -95.93509399 50.51873169 -94.78491211 50.5378418 C-84.14241378 50.86708391 -74.01588483 53.66318603 -63.9375 56.9375 C-64.45699219 56.12667969 -64.97648437 55.31585938 -65.51171875 54.48046875 C-78.92972954 33.17534625 -78.92972954 33.17534625 -76.9375 22.9375 C-75.25 19.875 -75.25 19.875 -72.9375 17.9375 C-71.28284883 17.54888916 -69.6156 17.20744312 -67.9375 16.9375 C-50.51019451 40.22241756 -39.86141305 64.84667542 -34.44970703 93.5222168 C-33.41689361 99.22170975 -33.41689361 99.22170975 -29.5625 103.375 C-28.97726563 103.82746094 -28.39203125 104.27992188 -27.7890625 104.74609375 C-21.20332903 108.98374925 -14.54823122 108.57105929 -6.9375 107.9375 C-0.66373125 106.33302928 3.55664908 102.25597353 7.0625 96.9375 C10.07431801 91.72269144 10.19590797 88.12141165 8.78466797 82.37304688 C7.57541681 78.29478807 5.90663413 74.48184179 4.125 70.625 C3.73602539 69.77196289 3.34705078 68.91892578 2.94628906 68.04003906 C-1.82650129 57.76105087 -6.97273437 47.20613244 -13.37695312 37.83007812 C-16.44146838 33.34321402 -17.65849855 30.54737465 -16.9375 24.9375 C-14.95133911 16.65011188 -10.82217743 -0.23025909 0 0 Z " fill="#C10375" transform="translate(264.9375,137.0625)"/>
<path d="M0 0 C4.1304447 0.54089157 6.66566051 2.99221709 9.75 5.5625 C16.92476815 11.29342616 24.58067113 15.38678145 33 19 C33.886875 19.38285156 34.77375 19.76570313 35.6875 20.16015625 C51.23926326 25.51853622 70.61319548 22.70828948 85.375 16.25 C91.76632535 12.73337557 96.90973783 7.13612039 102 2 C116.2923128 13.66719412 132.77470996 32.23809557 136.8125 50.71875 C137 54 137 54 134.75 56.875 C130.45762981 60.19183151 127.29167945 60.09984301 122 60 C122.64066406 60.90878906 123.28132813 61.81757813 123.94140625 62.75390625 C136.75638805 81.23213093 147.54111851 104.88322235 146 128 C143.74588013 130.25411987 138.1514024 129.31053593 135.04150391 129.3190918 C113.34753956 128.99558165 87.017872 124.25821708 70 110 C69.81824219 110.83144531 69.63648438 111.66289062 69.44921875 112.51953125 C69.19785156 113.60621094 68.94648438 114.69289063 68.6875 115.8125 C68.44386719 116.89144531 68.20023437 117.97039062 67.94921875 119.08203125 C67.00405632 121.98753057 66.41481308 123.20528707 64 125 C49.97133573 129.67622142 28.1528647 117.91165179 15.50292969 111.79199219 C9.53514585 108.77596422 3.56749367 105.71166244 -2 102 C-0.72416797 99.20761291 0.62116417 97.19750795 2.75 95 C14.85640769 81.20639124 16.94498952 63.21744049 16.20458984 45.66845703 C15.23653552 33.04216378 9.24642707 21.71951579 3.65893555 10.57666016 C3.1875415 9.63612793 2.71614746 8.6955957 2.23046875 7.7265625 C1.80145264 6.88689941 1.37243652 6.04723633 0.93041992 5.18212891 C0 3 0 3 0 0 Z " fill="#2E7D31" transform="translate(348,342)"/>
<path d="M0 0 C-1.51787597 5.2446934 -3.13401327 10.44289767 -4.89892578 15.61035156 C-5.95990098 18.73160162 -6.98262318 21.86424954 -8 25 C-8.37898438 26.15242188 -8.37898438 26.15242188 -8.765625 27.328125 C-11.97270071 38.96522829 -10.82460643 52.72486157 -7 64 C-6.73316406 64.84691406 -6.46632813 65.69382812 -6.19140625 66.56640625 C-0.75219166 82.01377569 10.93935455 92.50098909 25 100 C18.66701811 114.48466626 0.05512057 124.43973252 -14 130 C-22.34022381 133.18155677 -31.13274712 134.10840661 -40 133 C-42.92922521 131.03260993 -43.68184172 128.61680577 -44.6875 125.3125 C-44.93886719 124.50425781 -45.19023438 123.69601562 -45.44921875 122.86328125 C-45.63097656 122.24839844 -45.81273438 121.63351562 -46 121 C-47.175625 122.0828125 -47.175625 122.0828125 -48.375 123.1875 C-62.6016712 134.81854297 -82.66416575 136.1901833 -100.29882812 136.24023438 C-102.36369024 136.2499468 -104.42755744 136.28105394 -106.4921875 136.3125 C-115.42560024 136.38414618 -123.62195276 136.06463307 -131.125 130.8125 C-133.06416201 127.90375699 -133.971427 125.81336936 -133.734375 122.27734375 C-132.41023114 118.17108911 -129.45625586 115.31302748 -126.640625 112.12109375 C-123.73363242 108.78539535 -121.29891539 105.19558463 -118.875 101.5 C-118.25093262 100.55036377 -118.25093262 100.55036377 -117.61425781 99.58154297 C-116.40237825 97.72552411 -115.19908946 95.86430338 -114 94 C-113.63003906 93.42523926 -113.26007813 92.85047852 -112.87890625 92.25830078 C-110.90346946 89.18208259 -108.94396946 86.09618977 -107 83 C-108.15628906 82.87044922 -108.15628906 82.87044922 -109.3359375 82.73828125 C-110.33882812 82.59777344 -111.34171875 82.45726562 -112.375 82.3125 C-113.37273437 82.18488281 -114.37046875 82.05726563 -115.3984375 81.92578125 C-118 81 -118 81 -119.5390625 78.98046875 C-120.88806364 70.2576902 -114.48687114 62.68128426 -109.75 55.9375 C-109.10675781 54.99583984 -108.46351562 54.05417969 -107.80078125 53.08398438 C-94.46442535 33.80396081 -94.46442535 33.80396081 -87 31 C-83.92085079 31.34511571 -81.20949088 32.17678633 -78.25390625 33.1015625 C-64.21110866 36.97892558 -49.31982998 32.12975141 -36.875 25.5 C-30.14015362 21.41733767 -24.41248908 16.38804863 -18.5625 11.14453125 C-6.08331448 0 -6.08331448 0 0 0 Z " fill="#2E7D31" transform="translate(166,352)"/>
<path d="M0 0 C3.42689374 1.6246502 5.77973954 3.20952706 8.5 5.92578125 C12.45832322 9.28351421 16.29279668 8.60155613 21.22265625 8.21484375 C31.59234723 7.80250254 31.59234723 7.80250254 35.84765625 10.90234375 C40.54311207 15.58693046 41.99292963 19.55654533 42.03515625 26.15234375 C41.98730967 27.86115027 41.9296895 29.56983692 41.84765625 31.27734375 C42.67265625 31.33921875 43.49765625 31.40109375 44.34765625 31.46484375 C50.91388484 32.98914681 56.15487511 36.59614199 59.84765625 42.27734375 C61.96708598 46.32987973 62.08321334 50.00201558 62.27416992 54.47192383 C62.48313626 62.4505122 62.48313626 62.4505122 65.44921875 69.6171875 C67.54665672 71.14696485 67.54665672 71.14696485 69.9609375 72.48046875 C73.90975436 74.9384603 76.96220765 78.04408936 80.22265625 81.33984375 C80.87024902 81.99178711 81.5178418 82.64373047 82.18505859 83.31542969 C88.29791108 89.57079792 93.66686078 96.24323919 98.84765625 103.27734375 C99.25258301 103.81617188 99.65750977 104.355 100.07470703 104.91015625 C114.85286646 124.59060017 127.69555664 146.29365287 137.16015625 169.02734375 C137.46872559 169.72947998 137.77729492 170.43161621 138.09521484 171.1550293 C140.23870094 176.61016883 139.77246932 180.78009381 137.84765625 186.27734375 C134.38955328 192.80931603 128.96644887 198.05017863 121.84765625 200.27734375 C114.31358531 201.07884066 106.93934181 201.54038549 100.55859375 196.95703125 C94.86844808 191.37081518 93.05420878 187.72508812 91.84765625 179.90234375 C85.43249419 143.92165221 67.21022307 112.44161208 40.84765625 87.27734375 C40.25339844 87.49390625 39.65914062 87.71046875 39.046875 87.93359375 C31.29427023 90.53789022 23.3188209 92.11320003 15.53515625 88.77734375 C10.49403709 85.86860765 6.73679154 81.13587216 5.01171875 75.58984375 C4.43550781 74.44515625 4.43550781 74.44515625 3.84765625 73.27734375 C1.41955566 72.38327355 1.41955566 72.38327355 -1.40234375 72.21484375 C-7.53505758 71.34904886 -11.05014065 69.49967274 -15.33984375 64.96484375 C-19.42785653 58.90330756 -21.13487837 53.50332619 -20.15234375 46.27734375 C-19.4536835 44.15082049 -18.62716244 42.11726403 -17.76953125 40.05078125 C-16.84731545 37.40087004 -17.12980997 35.86776266 -18.15234375 33.27734375 C-19.45641259 31.25814038 -20.79057794 29.25809402 -22.15234375 27.27734375 C-24.64872209 21.9758477 -24.83989526 17.04938113 -24.15234375 11.27734375 C-19.53445496 1.87053325 -10.22206709 -3.43209149 0 0 Z " fill="#FCC01F" transform="translate(136.15234375,45.72265625)"/>
<path d="M0 0 C13.14307087 4.14922343 26.98037238 21.90043092 33.21484375 33.69921875 C33.59511719 34.37339844 33.97539062 35.04757812 34.3671875 35.7421875 C35.83426542 39.1293121 35.45100915 42.03865501 35.21484375 45.69921875 C34.55484375 46.35921875 33.89484375 47.01921875 33.21484375 47.69921875 C28.91301332 47.44287465 26.78830331 45.82831193 23.7109375 42.93359375 C22.40745361 41.7125293 22.40745361 41.7125293 21.07763672 40.46679688 C20.13291504 39.55349609 19.18819336 38.64019531 18.21484375 37.69921875 C17.71092102 37.21219482 17.20699829 36.7251709 16.68780518 36.22338867 C13.41228796 33.04757602 10.16987908 29.84003364 6.9440918 26.61376953 C5.26042553 24.93232283 3.56885799 23.25908943 1.87695312 21.5859375 C0.79248121 20.50439489 -0.29152076 19.42238081 -1.375 18.33984375 C-2.12498512 17.6006369 -2.12498512 17.6006369 -2.89012146 16.84649658 C-5.70239289 14.01573789 -8.01897385 11.2906182 -9.78515625 7.69921875 C-9.66015625 4.51171875 -9.66015625 4.51171875 -8.78515625 1.69921875 C-5.47111541 -0.51014181 -3.87484859 -0.65164723 0 0 Z " fill="#599721" transform="translate(411.78515625,380.30078125)"/>
<path d="M0 0 C2.41988029 1.83741458 2.92309476 2.69937043 3.6875 5.6875 C2.23334734 12.6938719 -4.92027324 17.11100301 -10.56640625 20.95703125 C-12.55852298 22.25236553 -14.55734867 23.53743605 -16.5625 24.8125 C-17.56474609 25.46669922 -18.56699219 26.12089844 -19.59960938 26.79492188 C-33.65553497 35.85400756 -33.65553497 35.85400756 -41 35 C-43 33 -43 33 -43.5 30.375 C-42.06614786 20.69649803 -31.2798748 12.86875624 -24 7.25 C-16.26421258 1.62310135 -9.86465763 -1.60222146 0 0 Z " fill="#5A9822" transform="translate(142,397)"/>
<path d="M0 0 C3.31116134 2.11717379 6.22519842 4.45039684 8 8 C8.57425085 12.70697417 8.45554552 16.12144792 6.25 20.375 C1.64724409 25.74488189 1.64724409 25.74488189 -2.04296875 26.31640625 C-7.5288076 26.60126555 -10.71914502 25.66930427 -15 22 C-18.39144985 18.19574837 -18.51199064 15.42405203 -18.3515625 10.47265625 C-17.68050807 5.75290673 -15.27146579 3.12615542 -11.8125 0.0625 C-7.65413013 -1.50843973 -4.23006701 -1.32821217 0 0 Z " fill="#FDE063" transform="translate(169,95)"/>
<path d="M0 0 C3.0717718 1.71077974 5.40485654 3.80971307 7 7 C7.12207871 8.78859511 7.17548448 10.58228381 7.1875 12.375 C7.20167969 13.33148438 7.21585938 14.28796875 7.23046875 15.2734375 C6.99371189 18.07439159 6.50013135 19.64787767 5 22 C1.53913537 24.85012381 -1.51719663 25.5335801 -6.00390625 25.35546875 C-9.35458518 24.7587725 -11.45623604 23.18036911 -14 21 C-16.56512783 16.80092088 -16.69005172 12.79710654 -16 8 C-12.20149985 0.795948 -7.88086148 -1.3559915 0 0 Z " fill="#FDE063" transform="translate(163,63)"/>
<path d="M0 0 C3.80285865 2.0090574 7.09334467 4.08076405 9 8 C9.59088945 12.36601651 9.49504212 15.89204858 7.6875 19.9375 C5.72537823 22.33564882 4.07233902 23.82434066 0.94921875 24.3359375 C-4.53313548 24.4306241 -7.71794886 23.75984978 -12 20 C-14.73643185 15.58973699 -14.68498069 11.03950082 -14 6 C-10.42315727 0.15782354 -6.67614327 -0.90755765 0 0 Z " fill="#FDE063" transform="translate(137,84)"/>
<path d="M0 0 C3.56423351 2.70881746 4.64082021 4.12328558 5.46875 8.44921875 C5.74492282 13.06820917 5.53041476 15.29755884 2.6875 19.0625 C-1.54470168 22.11362214 -4.85794122 22.44328093 -10 22 C-13.4121353 19.87689359 -15.74948744 17.86522064 -17 14 C-17.52055293 10.00909419 -17.16996586 8.30476637 -15.1875 4.75 C-10.90149296 -0.63812314 -6.52567384 -1.14303204 0 0 Z " fill="#FDE063" transform="translate(135,53)"/>
</svg>
