<svg xmlns="http://www.w3.org/2000/svg" version="1.1" xmlns:xlink="http://www.w3.org/1999/xlink" xmlns:svgjs="http://svgjs.dev/svgjs" width="1500" height="1500" viewBox="0 0 1500 1500"><rect width="1500" height="1500" fill="#ffffff"></rect><g transform="matrix(0.6666666666666666,0,0,0.6666666666666666,249.39393939393938,438.5856950067477)"><svg viewBox="0 0 396 247" data-background-color="#ebe3d6" preserveAspectRatio="xMidYMid meet" height="935" width="1500" xmlns="http://www.w3.org/2000/svg" xmlns:xlink="http://www.w3.org/1999/xlink"><g id="tight-bounds" transform="matrix(1,0,0,1,0.2400000000000091,-0.09999999999999432)"><svg viewBox="0 0 395.52 247.2" height="247.2" width="395.52"><g><svg></svg></g><g><svg viewBox="0 0 395.52 247.2" height="247.2" width="395.52"><g transform="matrix(1,0,0,1,52.620350877192976,37.08)"><svg viewBox="0 0 290.27929824561403 173.04" height="173.04" width="290.27929824561403"><g><svg viewBox="0 0 290.27929824561403 173.04" height="173.04" width="290.27929824561403"><g><svg viewBox="0 0 290.27929824561403 173.04" height="173.04" width="290.27929824561403"><g><svg viewBox="0 0 290.27929824561403 173.04" height="173.04" width="290.27929824561403"><g id="textblocktransform"><svg viewBox="0 0 290.27929824561403 173.04" height="173.04" width="290.27929824561403" id="textblock"><g><svg viewBox="0 0 290.27929824561403 173.04" height="173.04" width="290.27929824561403"><g transform="matrix(1,0,0,1,0,0)"><svg width="290.27929824561403" viewBox="43.89999999999999 -43.65 200.8 116.69999999999999" height="173.04" data-palette-color="#505050"><svg></svg><svg></svg><g class="wordmark-text-0" data-fill-palette-color="primary" id="text-0"><path d="M77.1 0.9l-2.7-0.9h-30v-1.55l4.7-3.7v-30.3l-5.2-1.75 1-2h29l2.7-0.9v11.5l-1.5 0.5-5.95-8.85h-13.8v15.85h7.85l3.65-6.4h1.55v15.2l-2 1-3.15-7.55h-7.9v16.7h13.6l6.65-9.85 1.5 0.5zM98.8-2l-1 2h-13.95v-1.55l4.45-3.5v-30.75l-4.45-3.1v-1.55l8.55-3.2h1.9v39.9zM129.7-26.55v1.55l-12.65 25-10.4 13.2-1.9-1.5c1.9-2.033 3.343-3.817 4.33-5.35 0.98-1.533 1.67-3.073 2.07-4.62 0.4-1.553 0.6-3.397 0.6-5.53v0l-6.3-15.25-4.65-2.7v-1.55l8.55-4.2 1.9 7.55 6.1 14.9 7.05-14.65-6.65-4.85 1-2zM150.4-5.4c0-0.933-0.517-1.793-1.55-2.58-1.033-0.78-2.617-1.72-4.75-2.82v0c-1.733-0.9-3.133-1.683-4.2-2.35-1.067-0.667-1.973-1.443-2.72-2.33-0.753-0.88-1.13-1.837-1.13-2.87v0c0-1.2 0.5-2.483 1.5-3.85 1-1.367 2.233-2.517 3.7-3.45 1.467-0.933 2.833-1.4 4.1-1.4v0c1.533 0 3.31 0.19 5.33 0.57 2.013 0.387 3.47 0.813 4.37 1.28v0 7.7h-1.9c-1.067-2.067-2.3-3.677-3.7-4.83-1.4-1.147-2.833-1.72-4.3-1.72v0c-1.033 0-1.867 0.273-2.5 0.82-0.633 0.553-0.95 1.247-0.95 2.08v0c0 1.033 0.543 1.957 1.63 2.77 1.08 0.82 2.72 1.78 4.92 2.88v0c1.7 0.867 3.067 1.617 4.1 2.25 1.033 0.633 1.91 1.373 2.63 2.22 0.713 0.853 1.07 1.797 1.07 2.83v0c0 1.233-0.523 2.523-1.57 3.87-1.053 1.353-2.337 2.497-3.85 3.43-1.52 0.933-2.913 1.4-4.18 1.4v0c-1.633 0-3.573-0.193-5.82-0.58-2.253-0.38-3.863-0.803-4.83-1.27v0-7.7h1.9c1.167 2.067 2.55 3.673 4.15 4.82 1.6 1.153 3.217 1.73 4.85 1.73v0c1.1 0 1.993-0.283 2.68-0.85 0.68-0.567 1.02-1.25 1.02-2.05zM177.2-2l-1 2h-13.95v-1.55l4.45-3.5v-14.6l-4.45-3.1v-1.55l8.55-3.2h1.9v23.75zM169.5-42.5c1 0 1.827 0.367 2.48 1.1 0.647 0.733 0.97 1.65 0.97 2.75v0c0 0.767-0.233 1.49-0.7 2.17-0.467 0.687-1.05 1.23-1.75 1.63-0.7 0.4-1.383 0.6-2.05 0.6v0c-1 0-1.823-0.367-2.47-1.1-0.653-0.733-0.98-1.65-0.98-2.75v0c0-0.767 0.233-1.493 0.7-2.18 0.467-0.68 1.05-1.22 1.75-1.62 0.7-0.4 1.383-0.6 2.05-0.6zM208.75-2l-1 2h-9.5v-4.35l-5.65 4.45c-0.667 0.267-1.5 0.4-2.5 0.4v0c-2.867 0-4.94-0.717-6.22-2.15-1.287-1.433-1.93-3.15-1.93-5.15v0c0-1.2 0.433-2.383 1.3-3.55 0.867-1.167 2.1-2.267 3.7-3.3v0h11.3v-3.2c0-2.167-0.573-3.7-1.72-4.6-1.153-0.9-2.73-1.35-4.73-1.35v0c-2.067 0-4.6 1.25-7.6 3.75v0l-1.5-1.9 7.2-5.7c1.333-0.267 2.933-0.4 4.8-0.4v0c3.033 0 5.383 0.74 7.05 2.22 1.667 1.487 2.5 3.647 2.5 6.48v0 14.6zM191.7-3.75c2.033 0 4.217-0.933 6.55-2.8v0-5.05h-8.85c-0.433 0.533-0.74 1.067-0.92 1.6-0.187 0.533-0.28 1.117-0.28 1.75v0c0 1.233 0.317 2.29 0.95 3.17 0.633 0.887 1.483 1.33 2.55 1.33zM244.7-1.95l-1 2h-9.5v-16.85c0-1.833-0.283-3.117-0.85-3.85-0.567-0.733-1.583-1.1-3.05-1.1v0c-1.1 0-2.19 0.2-3.27 0.6-1.087 0.4-2.363 1.167-3.83 2.3v0 15.15l4.5 1.75-1 2h-13.95v-1.55l4.45-3.5v-14.15l-4.45-2.6v-1.55l8.55-4.2 1.65 6.5 7.1-5.65c0.7-0.267 1.617-0.4 2.75-0.4v0c2.267 0 4.067 0.69 5.4 2.07 1.333 1.387 2 3.263 2 5.63v0 15.6z" fill="#000000" fill-rule="nonzero" stroke="none" stroke-width="1" stroke-linecap="butt" stroke-linejoin="miter" stroke-miterlimit="10" stroke-dasharray="" stroke-dashoffset="0" font-family="none" font-weight="none" font-size="none" text-anchor="none" style="mix-blend-mode: normal" data-fill-palette-color="primary" opacity="1"></path><path d="M130.65 22.1l-4.35 3.4-12 32.75-5.2 2.55-7.95-23.55-7.45 21-5.2 2.55-12.85-35.4-4.75-2.85 1-2h13.7v1.55l-3.65 2.75 10.4 29.3 7.45-20.8-2.7-8-4.6-2.8 1-2h14.7v1.55l-4.45 3.45 9.3 28.5 10.3-28.5-8.9-3 1-2h15.2zM155.95 57.85l-1 2h-9.5v-4.35l-5.65 4.45c-0.667 0.267-1.5 0.4-2.5 0.4v0c-2.867 0-4.943-0.717-6.23-2.15-1.28-1.433-1.92-3.15-1.92-5.15v0c0-1.2 0.433-2.383 1.3-3.55 0.867-1.167 2.1-2.267 3.7-3.3v0h11.3v-3.2c0-2.167-0.573-3.7-1.72-4.6-1.153-0.9-2.73-1.35-4.73-1.35v0c-2.067 0-4.6 1.25-7.6 3.75v0l-1.5-1.9 7.2-5.7c1.333-0.267 2.933-0.4 4.8-0.4v0c3.033 0 5.383 0.74 7.05 2.22 1.667 1.487 2.5 3.647 2.5 6.48v0 14.6zM138.9 56.1c2.033 0 4.217-0.933 6.55-2.8v0-5.05h-8.85c-0.433 0.533-0.74 1.067-0.92 1.6-0.187 0.533-0.28 1.117-0.28 1.75v0c0 1.233 0.317 2.29 0.95 3.17 0.633 0.887 1.483 1.33 2.55 1.33zM186.35 33.3v1.55l-12.65 25-10.4 13.2-1.9-1.5c1.9-2.033 3.343-3.817 4.33-5.35 0.98-1.533 1.67-3.073 2.07-4.62 0.4-1.553 0.6-3.397 0.6-5.53v0l-6.3-15.25-4.65-2.7v-1.55l8.55-4.2 1.9 7.55 6.1 14.9 7.05-14.65-6.65-4.85 1-2zM207.05 54.45c0-0.933-0.517-1.793-1.55-2.58-1.033-0.78-2.617-1.72-4.75-2.82v0c-1.733-0.9-3.133-1.683-4.2-2.35-1.067-0.667-1.977-1.443-2.73-2.33-0.747-0.88-1.12-1.837-1.12-2.87v0c0-1.2 0.5-2.483 1.5-3.85 1-1.367 2.233-2.517 3.7-3.45 1.467-0.933 2.833-1.4 4.1-1.4v0c1.533 0 3.31 0.19 5.33 0.57 2.013 0.387 3.47 0.813 4.37 1.28v0 7.7h-1.9c-1.067-2.067-2.3-3.677-3.7-4.83-1.4-1.147-2.833-1.72-4.3-1.72v0c-1.033 0-1.867 0.273-2.5 0.82-0.633 0.553-0.95 1.247-0.95 2.08v0c0 1.033 0.54 1.957 1.62 2.77 1.087 0.82 2.73 1.78 4.93 2.88v0c1.7 0.867 3.067 1.617 4.1 2.25 1.033 0.633 1.907 1.373 2.62 2.22 0.72 0.853 1.08 1.797 1.08 2.83v0c0 1.233-0.527 2.523-1.58 3.87-1.047 1.353-2.327 2.497-3.84 3.43-1.52 0.933-2.913 1.4-4.18 1.4v0c-1.633 0-3.573-0.193-5.82-0.58-2.253-0.38-3.863-0.803-4.83-1.27v0-7.7h1.9c1.167 2.067 2.55 3.673 4.15 4.82 1.6 1.153 3.217 1.73 4.85 1.73v0c1.1 0 1.993-0.283 2.68-0.85 0.68-0.567 1.02-1.25 1.02-2.05z" fill="#000000" fill-rule="nonzero" stroke="none" stroke-width="1" stroke-linecap="butt" stroke-linejoin="miter" stroke-miterlimit="10" stroke-dasharray="" stroke-dashoffset="0" font-family="none" font-weight="none" font-size="none" text-anchor="none" style="mix-blend-mode: normal" data-fill-palette-color="primary" opacity="1"></path></g></svg></g></svg></g></svg></g></svg></g></svg></g></svg></g></svg></g><g><path d="M0 247.2v-247.2h395.52v247.2zM388.109 239.789v-232.378h-380.698v232.378z" fill="#000000" fill-rule="nonzero" stroke="none" stroke-width="1" stroke-linecap="butt" stroke-linejoin="miter" stroke-miterlimit="10" stroke-dasharray="" stroke-dashoffset="0" font-family="none" font-weight="none" font-size="none" text-anchor="none" style="mix-blend-mode: normal" data-fill-palette-color="tertiary"></path></g></svg></g><defs></defs></svg><rect width="395.52" height="247.2" fill="none" stroke="none" visibility="hidden"></rect></g></svg></g></svg>